HIERARCHY
ROOT Hips
{
	OFFSET	0.00	0.00	0.00
	CHANNELS 6 Xposition Yposition Zposition Zrotation Xrotation Yrotation
	JOINT LeftUpLeg
	{
		OFFSET	 0.126116	-0.014019	-0.065224
		CHANNELS 3 Zrotation Xrotation Yrotation
		JOINT LeftLeg
		{
			OFFSET	 0.000000	 0.000000	 0.569914
			CHANNELS 3 Zrotation Xrotation Yrotation
			JOINT LeftFoot
			{
				OFFSET	 0.000000	 0.000000	 0.544423
				CHANNELS 3 Zrotation Xrotation Yrotation
				JOINT LeftToeBase
				{
					OFFSET	 0.000000	 0.000000	 0.207117
					CHANNELS 3 Zrotation Xrotation Yrotation
					End Site
					{
						OFFSET	 0.000000	 0.000000	 0.207117
					}
				}
			}
		}
	}
	JOINT RightUpLeg
	{
		OFFSET	-0.124023	-0.008373	-0.065224
		CHANNELS 3 Zrotation Xrotation Yrotation
		JOINT RightLeg
		{
			OFFSET	 0.000000	 0.000000	 0.570047
			CHANNELS 3 Zrotation Xrotation Yrotation
			JOINT RightFoot
			{
				OFFSET	 0.000000	 0.000000	 0.544354
				CHANNELS 3 Zrotation Xrotation Yrotation
				JOINT RightToeBase
				{
					OFFSET	 0.000000	 0.000000	 0.207540
					CHANNELS 3 Zrotation Xrotation Yrotation
					End Site
					{
						OFFSET	 0.000000	 0.000000	 0.207540
					}
				}
			}
		}
	}
	JOINT Spine
	{
		OFFSET	 0.000184	-0.007763	 0.117403
		CHANNELS 3 Zrotation Xrotation Yrotation
		JOINT Spine1
		{
			OFFSET	 0.000000	 0.000000	 0.137269
			CHANNELS 3 Zrotation Xrotation Yrotation
			JOINT Spine2
			{
				OFFSET	 0.000000	 0.000000	 0.156879
				CHANNELS 3 Zrotation Xrotation Yrotation
				JOINT LeftShoulder
				{
					OFFSET	 0.080501	-0.002496	 0.160144
					CHANNELS 3 Zrotation Xrotation Yrotation
					JOINT LeftArm
					{
						OFFSET	 0.000000	 0.000000	 0.164363
						CHANNELS 3 Zrotation Xrotation Yrotation
						JOINT LeftForeArm
						{
							OFFSET	 0.000000	 0.000000	 0.364576
							CHANNELS 3 Zrotation Xrotation Yrotation
							JOINT LeftHand
							{
								OFFSET	 0.000000	 0.000000	 0.360812
								CHANNELS 3 Zrotation Xrotation Yrotation
								JOINT LeftHandIndex1
								{
									OFFSET	 0.000000	 0.000000	 0.086006
									CHANNELS 3 Zrotation Xrotation Yrotation
									JOINT LeftHandIndex2
									{
										OFFSET	 0.000000	 0.000000	 0.047236
										CHANNELS 3 Zrotation Xrotation Yrotation
										JOINT LeftHandIndex3
										{
											OFFSET	-0.004284	-0.000551	 0.038166
											CHANNELS 3 Zrotation Xrotation Yrotation
											End Site
											{
												OFFSET	-0.004284	-0.000551	 0.038166
											}
										}
									}
								}
							}
						}
					}
				}
				JOINT Neck
				{
					OFFSET	 0.000000	 0.000000	 0.176489
					CHANNELS 3 Zrotation Xrotation Yrotation
					JOINT Head
					{
						OFFSET	 0.000000	-0.001747	 0.077940
						CHANNELS 3 Zrotation Xrotation Yrotation
						End Site
						{
							OFFSET	 0.000000	-0.001747	 0.077940
						}
					}
				}
				JOINT RightShoulder
				{
					OFFSET	-0.080363	 0.000306	 0.159706
					CHANNELS 3 Zrotation Xrotation Yrotation
					JOINT RightArm
					{
						OFFSET	 0.000000	 0.000000	 0.164196
						CHANNELS 3 Zrotation Xrotation Yrotation
						JOINT RightForeArm
						{
							OFFSET	 0.000000	 0.000000	 0.365611
							CHANNELS 3 Zrotation Xrotation Yrotation
							JOINT RightHand
							{
								OFFSET	 0.000000	 0.000000	 0.360648
								CHANNELS 3 Zrotation Xrotation Yrotation
								JOINT RightHandIndex1
								{
									OFFSET	 0.000000	 0.000000	 0.069977
									CHANNELS 3 Zrotation Xrotation Yrotation
									JOINT RightHandIndex2
									{
										OFFSET	 0.000000	 0.000000	 0.052305
										CHANNELS 3 Zrotation Xrotation Yrotation
										JOINT RightHandIndex3
										{
											OFFSET	 0.009002	-0.000782	 0.042196
											CHANNELS 3 Zrotation Xrotation Yrotation
											End Site
											{
												OFFSET	 0.009002	-0.000782	 0.042196
											}
										}
									}
								}
							}
						}
					}
				}
			}
		}
	}
}
MOTION
Frames:    13
Frame Time: 0.03333334
 5.634924	-0.536877	 0.259762	 171.047600	 3.928116	-0.923107	 9.945718	 16.993480	-176.338400	-6.128431	-11.623680	 1.541858	-21.138180	 89.264050	 24.625240	-2.299215	 39.898350	-0.272908	 3.947005	-45.829720	 179.377100	-0.741794	-44.964980	 3.276767	-177.341800	 83.370730	-178.638800	 2.405989	 20.528110	-0.162603	 4.535248	 2.718686	 2.617985	 8.328203	-4.939709	 1.845057	 10.550120	-9.079642	 0.861882	-91.776180	 78.527400	 180.000000	 45.156170	 63.711360	-60.459520	-7.034242	-5.103785	-28.978760	 4.995600	-7.808101	-5.413013	-3.812334	 37.924440	-2.927599	-2.450526	 36.184240	 0.754587	-1.378229	 35.397820	-2.634230	-0.127837	 5.025651	-2.341512	 3.089454	-24.119830	-0.835495	 89.782100	 78.203850	-180.000000	-35.513050	 75.194730	 39.286820	 3.940584	-7.235125	 20.951360	-14.433430	-8.926195	 9.645920	 6.437017	 35.671460	-0.771858	 2.830251	 35.756010	-7.813440	-2.350882	 35.473990	 5.254307
 5.635147	-0.521287	 0.254434	 168.596200	 4.026385	-0.909372	 9.682862	 17.580650	-176.282200	-5.944809	-11.624460	 1.536236	-15.282960	 89.153040	 18.738680	-2.288820	 40.793230	-0.297097	 4.316693	-45.870660	 179.851800	-0.594486	-42.899930	 3.360408	-176.892900	 83.885890	-178.721800	 2.399065	 24.266270	-0.086932	 4.458758	 2.756271	 2.637425	 8.236812	-4.876707	 1.809865	 10.499190	-8.944912	 0.807289	-91.776180	 78.527400	-180.000000	 41.867860	 62.121800	-57.092820	-6.583331	-4.586719	-27.360500	 4.345978	-7.813759	-5.411710	-3.812334	 37.924440	-2.927599	-2.450526	 36.184240	 0.754587	-1.378229	 35.397820	-2.634230	-0.197216	 4.899848	-2.357458	 3.032974	-23.572770	-0.857853	 89.782090	 78.203830	-180.000000	-30.755310	 73.033490	 34.549100	 3.924166	-6.534065	 19.981380	-13.343110	-8.930109	 9.643620	 6.437017	 35.671460	-0.771858	 2.830251	 35.756010	-7.813440	-2.350882	 35.473990	 5.254307
 5.638620	-0.502104	 0.252760	 169.089100	 4.114449	-1.089159	 9.390862	 18.356340	-176.306400	-5.688733	-11.624750	 1.534263	-9.248421	 88.962780	 12.691900	-2.273790	 41.996420	-0.330507	 4.546029	-45.673010	-179.664900	-0.160756	-42.270010	 3.682764	-176.249200	 84.630750	-178.948900	 2.387933	 27.617360	-0.016602	 4.347163	 2.596695	 2.631239	 8.107544	-4.986499	 1.738946	 10.397440	-9.005198	 0.761887	-91.776180	 78.527400	 180.000000	 42.631620	 62.303640	-57.938970	-6.374809	-4.585126	-26.475420	 4.582981	-7.823357	-5.409573	-3.812334	 37.924440	-2.927599	-2.450526	 36.184240	 0.754587	-1.378229	 35.397820	-2.634230	-0.285652	 5.046796	-2.302112	 2.969685	-23.830890	-0.873669	 89.782090	 78.203890	-180.000000	-30.319410	 73.214120	 33.773250	 3.848755	-6.470690	 19.602730	-13.467180	-8.935699	 9.640602	 6.437017	 35.671460	-0.771858	 2.830251	 35.756010	-7.813440	-2.350882	 35.473990	 5.254307
 5.642709	-0.481641	 0.253113	 169.485000	 4.201246	-1.223674	 9.131870	 19.182470	-176.423600	-5.397553	-11.624250	 1.538130	-4.078584	 88.646510	 7.543417	-2.257106	 43.228230	-0.365834	 4.800129	-45.465900	-179.261000	 0.138839	-42.073110	 3.972625	-175.698500	 85.420590	-179.186200	 2.378382	 29.712510	 0.028897	 4.246677	 2.450505	 2.574121	 7.999061	-5.113111	 1.676713	 10.344560	-9.054037	 0.720655	-91.776180	 78.527420	-180.000000	 43.336890	 62.635000	-58.592790	-6.244295	-4.572395	-25.511360	 4.835936	-7.834551	-5.406938	-3.812334	 37.924440	-2.927599	-2.450526	 36.184240	 0.754587	-1.378229	 35.397820	-2.634230	-0.369829	 5.181391	-2.297511	 2.908004	-23.983150	-0.845441	 89.782120	 78.203870	 180.000000	-29.749620	 73.457470	 32.917800	 3.858314	-6.415960	 19.247240	-13.603240	-8.943191	 9.636442	 6.437017	 35.671460	-0.771858	 2.830251	 35.756010	-7.813440	-2.350882	 35.473990	 5.254307
 5.647169	-0.460622	 0.252181	 169.844500	 4.302644	-1.323887	 8.912093	 20.016290	-176.613200	-5.084497	-11.623040	 1.547369	-0.263473	 88.155910	 3.784185	-2.236919	 44.596800	-0.406538	 5.038564	-45.143470	-178.920700	 0.433545	-42.241730	 4.298818	-175.542300	 86.185610	-179.065800	 2.375708	 30.227500	 0.040288	 4.143796	 2.271689	 2.487266	 7.893925	-5.246511	 1.600627	 10.294120	-9.089189	 0.679192	-91.776180	 78.527400	-180.000000	 43.992390	 63.073630	-59.133620	-6.196280	-4.549897	-24.535590	 5.090943	-7.847840	-5.403810	-3.812334	 37.924440	-2.927599	-2.450526	 36.184240	 0.754587	-1.378229	 35.397820	-2.634230	-0.452688	 5.195666	-2.273990	 2.847966	-23.999710	-0.802726	 89.782090	 78.203830	-180.000000	-29.144530	 73.717480	 32.053400	 3.902097	-6.369308	 18.929500	-13.737460	-8.951392	 9.631857	 6.437017	 35.671460	-0.771858	 2.830251	 35.756010	-7.813440	-2.350882	 35.473990	 5.254307
 5.652129	-0.438078	 0.250623	 170.187000	 4.417069	-1.414811	 8.716481	 20.892700	-176.871700	-4.733912	-11.621070	 1.562355	 2.289661	 87.400680	 1.328791	-2.210055	 46.246020	-0.457847	 5.255836	-44.704040	-178.597700	 0.864837	-42.716490	 4.751722	-175.513200	 87.083950	-178.759700	 2.379198	 29.550700	 0.025337	 4.030823	 2.068413	 2.373531	 7.789099	-5.395210	 1.521937	 10.257560	-9.123763	 0.635598	-91.776180	 78.527380	-180.000000	 44.583790	 63.646210	-59.502900	-6.229139	-4.517910	-23.523830	 5.357873	-7.864389	-5.399668	-3.812334	 37.924440	-2.927599	-2.450526	 36.184240	 0.754587	-1.378229	 35.397820	-2.634230	-0.536795	 5.121940	-2.237234	 2.790788	-23.911640	-0.730310	 89.782090	 78.203830	-180.000000	-28.484660	 73.991530	 31.129530	 3.968010	-6.325993	 18.633720	-13.868680	-8.960217	 9.627122	 6.437017	 35.671460	-0.771858	 2.830251	 35.756010	-7.813440	-2.350882	 35.473990	 5.254307
 5.657711	-0.413683	 0.250006	 170.505100	 4.510356	-1.480098	 8.549310	 21.815970	-177.214300	-4.337998	-11.618190	 1.583735	 3.823040	 86.275110	-0.054288	-2.175908	 48.115400	-0.519374	 5.318501	-44.159580	-178.445600	 1.811977	-43.451600	 5.536944	-174.261100	 88.296930	-179.406700	 2.381354	 29.107410	 0.015626	 3.905290	 1.849267	 2.188084	 7.691416	-5.567351	 1.452568	 10.258310	-9.179559	 0.593803	-91.776180	 78.527400	 180.000000	 45.030760	 64.385710	-59.544590	-6.352893	-4.477149	-22.486700	 5.638024	-7.884036	-5.394671	-3.812334	 37.924440	-2.927599	-2.450526	 36.184240	 0.754587	-1.378229	 35.397820	-2.634230	-0.622385	 5.000165	-2.186829	 2.734419	-23.745820	-0.635597	 89.782120	 78.203870	 180.000000	-27.735090	 74.274930	 30.093410	 4.057764	-6.283509	 18.359210	-13.989920	-8.969368	 9.622641	 6.437017	 35.671460	-0.771858	 2.830251	 35.756010	-7.813440	-2.350882	 35.473990	 5.254307
 5.663592	-0.388875	 0.250171	 170.753800	 4.501921	-1.479075	 8.455711	 22.723760	-177.658000	-3.920794	-11.614130	 1.613690	 4.630128	 84.762090	-0.643354	-2.137007	 49.999330	-0.585516	 5.045556	-43.604740	-178.615600	 3.447985	-44.336680	 6.688051	-176.394400	 89.891650	-176.415000	 2.377108	 29.961730	 0.034402	 3.794236	 1.634187	 1.899673	 7.627515	-5.746899	 1.386121	 10.287080	-9.260905	 0.577083	-91.776180	 78.527400	-180.000000	 45.281580	 65.241680	-59.252310	-6.565816	-4.432466	-21.507200	 5.912934	-7.904769	-5.389186	-3.812334	 37.924440	-2.927599	-2.450526	 36.184240	 0.754587	-1.378229	 35.397820	-2.634230	-0.708520	 4.884219	-2.125651	 2.672064	-23.547430	-0.533405	 89.782120	 78.203930	 180.000000	-26.912430	 74.542180	 28.962750	 4.166070	-6.242143	 18.122740	-14.085650	-8.977775	 9.619249	 6.437017	 35.671460	-0.771858	 2.830251	 35.756010	-7.813440	-2.350882	 35.473990	 5.254307
 5.669399	-0.364402	 0.251031	 170.918500	 4.450775	-1.409790	 8.469853	 23.590530	-178.158300	-3.539131	-11.608720	 1.652510	 5.001648	 82.873790	-0.723411	-2.099286	 51.626940	-0.646508	 4.588211	-43.000470	-178.930500	 5.170804	-45.188430	 7.834955	 6.957239	 88.501060	 1.035176	 2.371528	 30.985940	 0.057232	 3.733634	 1.411874	 1.540029	 7.615576	-5.904244	 1.308129	 10.306950	-9.343456	 0.600184	-91.776180	 78.527400	-180.000000	 45.324410	 66.163090	-58.675560	-6.867726	-4.384735	-20.632700	 6.160734	-7.925072	-5.383698	-3.812334	 37.924440	-2.927599	-2.450526	 36.184240	 0.754587	-1.378229	 35.397820	-2.634230	-0.796796	 4.820635	-2.056435	 2.615464	-23.398810	-0.400165	 89.782090	 78.203830	-180.000000	-26.028470	 74.777650	 27.747880	 4.287162	-6.201233	 17.928630	-14.148060	-8.984880	 9.617201	 6.437017	 35.671460	-0.771858	 2.830251	 35.756010	-7.813440	-2.350882	 35.473990	 5.254307
 5.676149	-0.336528	 0.252647	 171.020400	 4.401216	-1.332364	 8.554574	 24.555500	-178.680400	-3.235833	-11.603560	 1.688510	 5.040717	 80.162470	-0.420140	-2.067624	 52.869290	-0.695778	 4.079351	-42.321870	-179.312100	 6.343215	-46.110270	 8.591454	 5.454912	 87.230000	 2.940110	 2.370736	 31.124840	 0.060351	 3.756187	 1.112931	 1.186651	 7.668747	-6.046059	 1.205274	 10.285780	-9.394499	 0.671875	-91.776180	 78.527400	 180.000000	 45.106070	 67.285930	-57.688410	-7.373976	-4.311779	-19.764490	 6.357884	-7.947023	-5.378024	-3.812334	 37.924440	-2.927599	-2.450526	 36.184240	 0.754587	-1.378229	 35.397820	-2.634230	-0.889430	 4.783538	-1.971595	 2.568612	-23.272950	-0.229385	 89.782100	 78.203850	-180.000000	-25.173230	 75.010000	 26.575970	 4.411557	-6.161364	 17.747900	-14.205570	-8.992778	 9.615586	 6.437017	 35.671460	-0.771858	 2.830251	 35.756010	-7.813440	-2.350882	 35.473990	 5.254307
 5.682904	-0.310101	 0.254591	 171.075900	 4.345078	-1.315439	 8.678388	 25.440070	-179.100000	-3.127217	-11.601530	 1.702632	 4.785039	 77.007820	 0.123153	-2.058085	 53.224250	-0.710331	 3.750447	-41.751190	-179.664600	 6.520728	-46.948590	 8.703731	 4.878284	 86.459010	 3.340784	 2.372550	 30.806140	 0.053203	 3.855595	 0.750186	 0.991009	 7.763415	-6.146666	 1.124947	 10.214550	-9.395181	 0.766848	-91.776180	 78.527380	-180.000000	 44.591110	 68.392750	-56.370740	-7.999239	-4.227557	-19.084710	 6.447666	-7.965743	-5.373737	-3.812334	 37.924440	-2.927599	-2.450526	 36.184240	 0.754587	-1.378229	 35.397820	-2.634230	-0.949139	 4.751072	-1.910801	 2.545769	-23.137900	-0.090451	 89.782120	 78.203870	 180.000000	-24.627320	 75.193910	 25.824550	 4.495664	-6.134042	 17.612580	-14.261040	-9.000937	 9.614035	 6.437017	 35.671460	-0.771858	 2.830251	 35.756010	-7.813440	-2.350882	 35.473990	 5.254307
 5.689640	-0.284324	 0.256951	 171.120500	 4.318558	-1.340867	 8.844212	 26.213330	-179.464500	-3.197927	-11.602750	 1.694023	 4.310876	 73.474370	 0.830719	-2.065426	 52.952060	-0.699147	 3.566577	-41.033370	-179.945100	 6.295205	-47.666700	 8.571839	 4.920772	 85.925180	 2.936890	 2.375053	 30.350760	 0.043032	 3.986897	 0.325885	 0.904724	 7.870340	-6.230492	 1.071849	 10.128440	-9.362904	 0.862924	-91.776180	 78.527400	 180.000000	 43.849610	 69.413330	-54.743680	-8.642511	-4.136292	-18.578600	 6.435739	-7.981362	-5.371176	-3.812334	 37.924440	-2.927599	-2.450526	 36.184240	 0.754587	-1.378229	 35.397820	-2.634230	-0.972366	 4.721491	-1.879802	 2.531050	-22.953250	 0.003036	 89.782120	 78.203870	 180.000000	-24.308030	 75.333220	 25.367710	 4.541879	-6.116246	 17.514390	-14.312520	-9.009346	 9.612015	 6.437017	 35.671460	-0.771858	 2.830251	 35.756010	-7.813440	-2.350882	 35.473990	 5.254307
 5.697381	-0.254983	 0.260118	 171.182900	 4.275841	-1.390594	 9.028608	 27.020520	-179.859100	-3.478168	-11.609890	 1.643522	 4.118812	 68.934130	 1.088236	-2.074677	 52.601260	-0.684941	 3.455336	-39.960770	 179.805600	 6.020528	-48.314980	 8.430703	 5.003005	 85.615230	 2.522543	 2.380243	 29.338230	 0.020670	 4.126156	-0.106116	 0.878544	 7.977226	-6.308630	 1.032265	 10.066870	-9.274725	 0.942923	-91.776180	 78.527400	 180.000000	 42.727580	 70.452160	-52.456940	-9.360349	-4.024519	-18.203780	 6.295293	-7.995807	-5.370388	-3.812334	 37.924440	-2.927599	-2.450526	 36.184240	 0.754587	-1.378229	 35.397820	-2.634230	-0.970537	 4.689513	-1.868518	 2.519254	-22.636710	 0.082475	 89.782140	 78.203830	 180.000000	-24.149110	 75.438950	 25.096970	 4.548347	-6.105139	 17.441080	-14.364930	-9.018996	 9.609807	 6.437017	 35.671460	-0.771858	 2.830251	 35.756010	-7.813440	-2.350882	 35.473990	 5.254307
